<?xml version="1.0" encoding="utf-8"?>
<!-- Generator: Adobe Illustrator 24.0.1, SVG Export Plug-In . SVG Version: 6.00 Build 0)  -->
<svg version="1.1" id="Layer_1" xmlns="http://www.w3.org/2000/svg" xmlns:xlink="http://www.w3.org/1999/xlink" x="0px" y="0px"
	 width="125px" height="32px" viewBox="0 0 125 32" style="enable-background:new 0 0 125 32;" xml:space="preserve">
<style type="text/css">
	.st0{fill:#727FFF;}
</style>
<g>
	<path class="st0" d="M12.5,1L8.8,3.6L5,1H4.2v0.5l3.1,3.8h3l3-3.8V1H12.5z"/>
</g>
<g>
	<path class="st0" d="M0.5,16c0-6.1,3.4-9.7,8.3-9.7s8.3,3.6,8.3,9.7s-3.4,9.8-8.3,9.8S0.5,22.1,0.5,16z M13.6,16
		c0-4.2-1.9-6.8-4.9-6.8S3.9,11.8,3.9,16s1.9,6.9,4.9,6.9S13.6,20.2,13.6,16z"/>
</g>
<g>
	<path class="st0" d="M20.9,6.6h3.8l3.3,9.2c0.4,1.2,0.8,2.5,1.2,3.7h0.1c0.4-1.2,0.8-2.5,1.2-3.7l3.2-9.2h3.8v18.8h-3.1v-8.6
		c0-1.7,0.3-4.2,0.4-6h-0.1l-1.5,4.4l-3.1,8.4h-2L25,15.2l-1.5-4.4h-0.1c0.2,1.7,0.4,4.2,0.4,6v8.6h-3L20.9,6.6L20.9,6.6z"/>
	<path class="st0" d="M41.3,16.1c0-6.1,3.9-9.8,8.9-9.8c2.7,0,4.5,1.2,5.7,2.4l-1.8,2.1c-0.9-0.9-2-1.6-3.8-1.6
		c-3.3,0-5.6,2.6-5.6,6.8c0,4.3,2,6.9,5.8,6.9c1,0,2.1-0.3,2.7-0.8V18h-3.5v-2.7h6.5v8.3c-1.3,1.3-3.4,2.2-6,2.2
		C45.1,25.8,41.3,22.3,41.3,16.1z"/>
	<path class="st0" d="M59,23l1.9-2.3c1.3,1.3,3.1,2.1,4.9,2.1c2.1,0,3.3-1,3.3-2.4c0-1.5-1.2-2-2.9-2.8l-2.6-1.1
		c-1.8-0.8-3.8-2.2-3.8-5c0-3,2.6-5.3,6.3-5.3c2.2,0,4.3,0.9,5.8,2.4l-1.7,2.1c-1.2-1-2.5-1.6-4.1-1.6c-1.8,0-2.9,0.8-2.9,2.2
		c0,1.5,1.4,2,3,2.7l2.5,1.1c2.2,0.9,3.8,2.3,3.8,5.1c0,3-2.5,5.6-6.7,5.6C63.2,25.8,60.8,24.8,59,23z"/>
	<path class="st0" d="M74.2,11.3h3.3l1.7,7.3c0.3,1.4,0.5,2.7,0.7,4.1H80c0.3-1.4,0.6-2.7,0.9-4.1l1.8-7.3h3l1.9,7.3
		c0.3,1.4,0.6,2.7,0.9,4.1h0.1c0.3-1.4,0.5-2.7,0.8-4.1l1.7-7.3h3.1l-3.6,14.1h-3.9L85,18.8c-0.3-1.3-0.6-2.6-0.8-4.1h-0.1
		c-0.3,1.5-0.5,2.8-0.8,4.1l-1.6,6.6H78L74.2,11.3z"/>
	<path class="st0" d="M96.1,21.6c0-3,2.5-4.6,8.3-5.2c0-1.5-0.7-2.8-2.6-2.8c-1.4,0-2.7,0.6-4,1.4l-1.2-2.2c1.6-1,3.5-1.8,5.8-1.8
		c3.5,0,5.3,2.2,5.3,6.1v8.3H105l-0.3-1.6h-0.1c-1.3,1.1-2.7,1.9-4.4,1.9C97.8,25.8,96.1,24.1,96.1,21.6z M104.4,21.6v-3.2
		c-3.8,0.5-5.1,1.5-5.1,2.9c0,1.2,0.8,1.8,2,1.8C102.5,23.2,103.3,22.6,104.4,21.6z"/>
	<path class="st0" d="M111.7,11.3h2.7l0.3,1.5h0.1c1.2-1,2.7-1.8,4.2-1.8c3.5,0,5.5,2.8,5.5,7.2c0,4.8-2.9,7.6-6,7.6
		c-1.3,0-2.5-0.6-3.6-1.6l0.1,2.3V31h-3.3L111.7,11.3L111.7,11.3z M121.1,18.2c0-2.8-0.9-4.5-3.1-4.5c-1,0-2,0.5-3.1,1.6v6.6
		c1,0.9,2,1.2,2.8,1.2C119.7,23,121.1,21.4,121.1,18.2z"/>
</g>
</svg>
