<?xml version="1.0" encoding="utf-8"?>
<!-- Generator: Adobe Illustrator 24.0.1, SVG Export Plug-In . SVG Version: 6.00 Build 0)  -->
<svg version="1.1" id="Layer_1" xmlns="http://www.w3.org/2000/svg" xmlns:xlink="http://www.w3.org/1999/xlink" x="0px" y="0px"
	 width="163px" height="30px" viewBox="0 0 163 30" style="enable-background:new 0 0 163 30;" xml:space="preserve">
<style type="text/css">
	.st0{fill:url(#O_2_);}
	.st1{fill:url(#M_1_);}
	.st2{fill:url(#G_1_);}
	.st3{fill:url(#S_1_);}
	.st4{fill:url(#W_1_);}
	.st5{fill:url(#A_1_);}
	.st6{fill:url(#P_1_);}
	.st7{fill:url(#bg_1_);}
	.st8{fill:#FFFFFF;}
</style>
<g id="OMGSWAP">
	
		<linearGradient id="O_2_" gradientUnits="userSpaceOnUse" x1="45.9428" y1="7.9" x2="45.9428" y2="26.1" gradientTransform="matrix(1 0 0 -1 0 32)">
		<stop  offset="0" style="stop-color:#ED5306"/>
		<stop  offset="1" style="stop-color:#FF7020"/>
	</linearGradient>
	<path id="O" class="st0" d="M38.2,14.9c0-5.7,3.2-9,7.7-9s7.7,3.4,7.7,9c0,5.7-3.2,9.2-7.7,9.2S38.2,20.6,38.2,14.9z M50.5,14.9
		c0-3.9-1.8-6.3-4.5-6.3s-4.5,2.4-4.5,6.3s1.8,6.5,4.5,6.5S50.5,18.9,50.5,14.9z"/>
	
		<linearGradient id="M_1_" gradientUnits="userSpaceOnUse" x1="64.9814" y1="8.222" x2="64.9814" y2="25.778" gradientTransform="matrix(1 0 0 -1 0 32)">
		<stop  offset="0" style="stop-color:#ED5306"/>
		<stop  offset="1" style="stop-color:#FF7020"/>
	</linearGradient>
	<path id="M" class="st1" d="M57.2,6.2h3.5l3.1,8.6c0.4,1.1,0.7,2.3,1.1,3.4h0.1c0.4-1.1,0.7-2.3,1.1-3.4l3-8.6h3.5v17.6h-2.9v-8
		c0-1.6,0.2-4,0.4-5.6h-0.1l-1.4,4.1l-2.9,7.9H64l-2.9-7.9l-1.4-4.1h-0.1c0.2,1.6,0.4,4,0.4,5.6v8h-2.8L57.2,6.2L57.2,6.2z"/>
	
		<linearGradient id="G_1_" gradientUnits="userSpaceOnUse" x1="83.229" y1="7.9" x2="83.229" y2="26.1" gradientTransform="matrix(1 0 0 -1 0 32)">
		<stop  offset="0" style="stop-color:#ED5306"/>
		<stop  offset="1" style="stop-color:#FF7020"/>
	</linearGradient>
	<path id="G" class="st2" d="M76.3,15.1c0-5.7,3.6-9.2,8.3-9.2c2.5,0,4.2,1.1,5.3,2.2l-1.7,2c-0.9-0.9-1.9-1.5-3.5-1.5
		c-3.1,0-5.2,2.4-5.2,6.4c0,4,1.9,6.4,5.4,6.4c1,0,1.9-0.3,2.5-0.8v-3.8h-3.3v-2.6h6.1V22c-1.2,1.2-3.2,2.1-5.6,2.1
		C79.8,24.1,76.3,20.9,76.3,15.1z"/>
	
		<linearGradient id="S_1_" gradientUnits="userSpaceOnUse" x1="99.1862" y1="7.8944" x2="99.1862" y2="26.0972" gradientTransform="matrix(1 0 0 -1 0 32)">
		<stop  offset="0" style="stop-color:#ED5306"/>
		<stop  offset="1" style="stop-color:#FF7020"/>
	</linearGradient>
	<path id="S" class="st3" d="M92.9,21.5l1.8-2.1c1.3,1.2,2.9,2,4.6,2c2,0,3.1-0.9,3.1-2.3c0-1.4-1.1-1.9-2.7-2.6l-2.4-1
		c-1.7-0.7-3.5-2.1-3.5-4.7c0-2.8,2.5-5,5.9-5c2,0,4,0.8,5.4,2.2l-1.6,2c-1.1-0.9-2.3-1.5-3.8-1.5c-1.7,0-2.7,0.8-2.7,2.1
		c0,1.4,1.3,1.9,2.8,2.5l2.4,1c2.1,0.9,3.5,2.2,3.5,4.7c0,2.8-2.4,5.2-6.3,5.2C96.8,24.1,94.5,23.2,92.9,21.5z"/>
	
		<linearGradient id="W_1_" gradientUnits="userSpaceOnUse" x1="117.1958" y1="8.222" x2="117.1958" y2="25.778" gradientTransform="matrix(1 0 0 -1 0 32)">
		<stop  offset="0" style="stop-color:#ED5306"/>
		<stop  offset="1" style="stop-color:#FF7020"/>
	</linearGradient>
	<path id="W" class="st4" d="M107,6.2h3.2l1.5,8.9c0.3,1.9,0.6,3.7,0.9,5.6h0.1c0.4-1.9,0.8-3.8,1.1-5.6l2.2-8.9h2.7l2.2,8.9
		c0.4,1.8,0.8,3.7,1.2,5.6h0.1c0.3-1.9,0.6-3.8,0.8-5.6l1.5-8.9h3l-3.4,17.6h-3.9l-2.2-9.2c-0.3-1.4-0.5-2.7-0.8-4h-0.1
		c-0.2,1.3-0.5,2.7-0.8,4l-2.1,9.2h-3.8L107,6.2z"/>
	
		<linearGradient id="A_1_" gradientUnits="userSpaceOnUse" x1="135.4392" y1="8.222" x2="135.4392" y2="25.778" gradientTransform="matrix(1 0 0 -1 0 32)">
		<stop  offset="0" style="stop-color:#ED5306"/>
		<stop  offset="1" style="stop-color:#FF7020"/>
	</linearGradient>
	<path id="A" class="st5" d="M133.6,6.2h3.7l5.7,17.6h-3.3l-2.7-9.3c-0.6-1.9-1.1-3.9-1.6-5.8h-0.1c-0.5,1.9-1,3.9-1.6,5.8l-2.7,9.3
		h-3.2L133.6,6.2z M131.3,16.6h8.3V19h-8.3V16.6z"/>
	
		<linearGradient id="P_1_" gradientUnits="userSpaceOnUse" x1="151.1542" y1="8.222" x2="151.1542" y2="25.778" gradientTransform="matrix(1 0 0 -1 0 32)">
		<stop  offset="0" style="stop-color:#ED5306"/>
		<stop  offset="1" style="stop-color:#FF7020"/>
	</linearGradient>
	<path id="P" class="st6" d="M145,6.2h5.5c3.9,0,6.8,1.4,6.8,5.4c0,3.9-2.9,5.7-6.7,5.7h-2.5v6.5H145V6.2z M150.4,14.8
		c2.6,0,3.9-1,3.9-3.2c0-2.2-1.4-2.9-4-2.9h-2.2v6.1H150.4z"/>
</g>
<linearGradient id="bg_1_" gradientUnits="userSpaceOnUse" x1="19.6872" y1="3" x2="19.6872" y2="31" gradientTransform="matrix(1 0 0 -1 0 32)">
	<stop  offset="0" style="stop-color:#ED5306"/>
	<stop  offset="1" style="stop-color:#FF7020"/>
</linearGradient>
<path id="bg" class="st7" d="M25.3,29H14.1c-4.6,0-8.4-3.8-8.4-8.4V9.4C5.7,4.8,9.4,1,14.1,1h11.2c4.6,0,8.4,3.8,8.4,8.4v11.2
	C33.7,25.2,29.9,29,25.3,29z"/>
<g id="Omega_1_">
	<g>
		<g>
			<path id="O_1_" class="st8" d="M11.7,17.5c0-5.8,3.3-9.3,7.9-9.3s7.9,3.5,7.9,9.3c0,5.8-3.3,9.4-7.9,9.4S11.7,23.3,11.7,17.5z
				 M24.4,17.5c0-4-1.8-6.5-4.7-6.5S15,13.4,15,17.5s1.8,6.6,4.7,6.6S24.4,21.5,24.4,17.5z"/>
			<path id="mega_1_" class="st8" d="M23.3,3.1l-3.6,2.5l-3.6-2.5h-0.8v0.4l2.9,3.7h2.9l2.9-3.7V3.1H23.3z"/>
		</g>
	</g>
</g>
</svg>
