<?xml version="1.0" encoding="utf-8"?>
<!-- Generator: Adobe Illustrator 24.0.1, SVG Export Plug-In . SVG Version: 6.00 Build 0)  -->
<svg version="1.1" id="Layer_1" xmlns="http://www.w3.org/2000/svg" xmlns:xlink="http://www.w3.org/1999/xlink" x="0px" y="0px"
	 width="163px" height="30px" viewBox="0 0 163 30" style="enable-background:new 0 0 163 30;" xml:space="preserve">
<style type="text/css">
	.st0{fill:url(#O_2_);}
	.st1{fill:url(#M_1_);}
	.st2{fill:url(#G_1_);}
	.st3{fill:url(#S_1_);}
	.st4{fill:url(#W_1_);}
	.st5{fill:url(#A_1_);}
	.st6{fill:url(#P_1_);}
	.st7{fill:url(#SVGID_1_);}
	.st8{fill:#FFFFFF;}
</style>
<g id="OMGSWAP">
	
		<image style="overflow:visible;opacity:0.15;" width="126" height="26" xlink:href="493EE9D4.png"  transform="matrix(1 0 0 1 36 3)">
	</image>
	<g>
		<g>
			<linearGradient id="O_2_" gradientUnits="userSpaceOnUse" x1="45.9" y1="24.1" x2="45.9" y2="5.9">
				<stop  offset="0" style="stop-color:#009685"/>
				<stop  offset="1" style="stop-color:#00B298"/>
			</linearGradient>
			<path id="O_13_" class="st0" d="M38.2,14.9c0-5.7,3.2-9,7.7-9s7.7,3.4,7.7,9c0,5.7-3.2,9.2-7.7,9.2S38.2,20.6,38.2,14.9z
				 M50.5,14.9c0-3.9-1.8-6.3-4.5-6.3s-4.5,2.4-4.5,6.3s1.8,6.5,4.5,6.5S50.5,18.9,50.5,14.9z"/>
			<linearGradient id="M_1_" gradientUnits="userSpaceOnUse" x1="64.9" y1="23.8" x2="64.9" y2="6.2">
				<stop  offset="0" style="stop-color:#009685"/>
				<stop  offset="1" style="stop-color:#00B298"/>
			</linearGradient>
			<path id="M_12_" class="st1" d="M57.2,6.2h3.5l3.1,8.6c0.4,1.1,0.7,2.3,1.1,3.4H65c0.4-1.1,0.7-2.3,1.1-3.4l3-8.6h3.5v17.6h-2.9
				v-8c0-1.6,0.2-4,0.4-5.6H70l-1.4,4.1l-2.9,7.9H64l-2.9-7.9l-1.4-4.1h-0.1c0.2,1.6,0.4,4,0.4,5.6v8h-2.8V6.2L57.2,6.2z"/>
			<linearGradient id="G_1_" gradientUnits="userSpaceOnUse" x1="83.25" y1="24.1" x2="83.25" y2="5.9">
				<stop  offset="0" style="stop-color:#009685"/>
				<stop  offset="1" style="stop-color:#00B298"/>
			</linearGradient>
			<path id="G_12_" class="st2" d="M76.3,15.1c0-5.7,3.6-9.2,8.3-9.2c2.5,0,4.2,1.1,5.3,2.2l-1.7,2c-0.9-0.9-1.9-1.5-3.5-1.5
				c-3.1,0-5.2,2.4-5.2,6.4s1.9,6.4,5.4,6.4c1,0,1.9-0.3,2.5-0.8v-3.8h-3.3v-2.6h6.1V22c-1.2,1.2-3.2,2.1-5.6,2.1
				C79.8,24.1,76.3,20.9,76.3,15.1z"/>
			<linearGradient id="S_1_" gradientUnits="userSpaceOnUse" x1="99.3" y1="24.0075" x2="99.3" y2="5.8">
				<stop  offset="0" style="stop-color:#009685"/>
				<stop  offset="1" style="stop-color:#00B298"/>
			</linearGradient>
			<path id="S_12_" class="st3" d="M92.9,21.5l1.8-2.1c1.3,1.2,2.9,2,4.6,2c2,0,3.1-0.9,3.1-2.3s-1.1-1.9-2.7-2.6l-2.4-1
				c-1.7-0.7-3.5-2.1-3.5-4.7c0-2.8,2.5-5,5.9-5c2,0,4,0.8,5.4,2.2l-1.6,2c-1.1-0.9-2.3-1.5-3.8-1.5C98,8.5,97,9.3,97,10.6
				c0,1.4,1.3,1.9,2.8,2.5l2.4,1c2.1,0.9,3.5,2.2,3.5,4.7c0,2.8-2.4,5.2-6.3,5.2C96.8,24.1,94.5,23.2,92.9,21.5z"/>
			<linearGradient id="W_1_" gradientUnits="userSpaceOnUse" x1="117.25" y1="23.8" x2="117.25" y2="6.2">
				<stop  offset="0" style="stop-color:#009685"/>
				<stop  offset="1" style="stop-color:#00B298"/>
			</linearGradient>
			<path id="W_12_" class="st4" d="M107,6.2h3.2l1.5,8.9c0.3,1.9,0.6,3.7,0.9,5.6h0.1c0.4-1.9,0.8-3.8,1.1-5.6l2.2-8.9h2.7l2.2,8.9
				c0.4,1.8,0.8,3.7,1.2,5.6h0.1c0.3-1.9,0.6-3.8,0.8-5.6l1.5-8.9h3l-3.4,17.6h-3.9l-2.2-9.2c-0.3-1.4-0.5-2.7-0.8-4h-0.1
				c-0.2,1.3-0.5,2.7-0.8,4l-2.1,9.2h-3.8L107,6.2z"/>
			<linearGradient id="A_1_" gradientUnits="userSpaceOnUse" x1="135.4" y1="23.8" x2="135.4" y2="6.2">
				<stop  offset="0" style="stop-color:#009685"/>
				<stop  offset="1" style="stop-color:#00B298"/>
			</linearGradient>
			<path id="A_12_" class="st5" d="M133.6,6.2h3.7l5.7,17.6h-3.3l-2.7-9.3c-0.6-1.9-1.1-3.9-1.6-5.8h-0.1c-0.5,1.9-1,3.9-1.6,5.8
				l-2.7,9.3h-3.2L133.6,6.2z M131.3,16.6h8.3V19h-8.3V16.6z"/>
			<linearGradient id="P_1_" gradientUnits="userSpaceOnUse" x1="151.15" y1="23.8" x2="151.15" y2="6.2">
				<stop  offset="0" style="stop-color:#009685"/>
				<stop  offset="1" style="stop-color:#00B298"/>
			</linearGradient>
			<path id="P_12_" class="st6" d="M145,6.2h5.5c3.9,0,6.8,1.4,6.8,5.4c0,3.9-2.9,5.7-6.7,5.7h-2.5v6.5H145V6.2z M150.4,14.8
				c2.6,0,3.9-1,3.9-3.2s-1.4-2.9-4-2.9h-2.2v6.1C148.1,14.8,150.4,14.8,150.4,14.8z"/>
		</g>
	</g>
</g>
<g id="bg">
	
		<image style="overflow:visible;opacity:0.15;" width="33" height="33" xlink:href="493EE9D5.png"  transform="matrix(1 0 0 1 4 -1)">
	</image>
	<g>
		<linearGradient id="SVGID_1_" gradientUnits="userSpaceOnUse" x1="19.7" y1="28" x2="19.7" y2="2">
			<stop  offset="0" style="stop-color:#009685"/>
			<stop  offset="1" style="stop-color:#00B298"/>
		</linearGradient>
		<path class="st7" d="M24.9,28H14.5c-4.3,0-7.8-3.5-7.8-7.8V9.8c0-4.3,3.4-7.8,7.8-7.8h10.4c4.3,0,7.8,3.5,7.8,7.8v10.4
			C32.7,24.5,29.2,28,24.9,28z"/>
	</g>
</g>
<g id="Omega_1_">
	<g>
		<g>
			<path id="O_1_" class="st8" d="M12.3,17.3c0-5.4,3.1-8.6,7.3-8.6s7.3,3.3,7.3,8.6S23.9,26,19.6,26S12.3,22.7,12.3,17.3z
				 M24.1,17.3c0-3.7-1.7-6-4.4-6s-4.4,2.2-4.4,6s1.7,6.1,4.4,6.1S24.1,21,24.1,17.3z"/>
			<path id="mega_1_" class="st8" d="M23,3.9l-3.3,2.3l-3.3-2.3h-0.7v0.4l2.7,3.4H21l2.7-3.4V3.9H23z"/>
		</g>
	</g>
</g>
</svg>
