<?xml version="1.0" encoding="utf-8"?>
<!-- Generator: Adobe Illustrator 24.0.1, SVG Export Plug-In . SVG Version: 6.00 Build 0)  -->
<svg version="1.1" id="Layer_1" xmlns="http://www.w3.org/2000/svg" xmlns:xlink="http://www.w3.org/1999/xlink" x="0px" y="0px"
	 width="176px" height="32px" viewBox="0 0 176 32" style="enable-background:new 0 0 176 32;" xml:space="preserve">
<style type="text/css">
	.st0{fill:#009685;}
</style>
<g id="Omega">
	<path id="O" class="st0" d="M0.3,19.3C0.3,11.5,4.7,6.9,11,6.9s10.7,4.6,10.7,12.5C21.7,27.2,17.3,32,11,32S0.3,27.2,0.3,19.3z
		 M17.3,19.3c0-5.4-2.5-8.7-6.3-8.7s-6.3,3.3-6.3,8.7s2.5,8.9,6.3,8.9S17.3,24.8,17.3,19.3z"/>
	<path id="mega" class="st0" d="M15.9,0L11,3.3L6.2,0h-1v0.6l3.9,4.9h3.9l3.9-4.9V0H15.9z"/>
</g>
<g id="OmegaSwap">
	<path id="o" class="st0" d="M43.7,10.2c0.1-0.1,0.2-0.2,0.3-0.3c0.1-0.1,0.3-0.1,0.5,0.1c0.2,0.2,0.5,0.5,0.7,1
		c0.2,0.4,0.5,0.9,0.7,1.5c0.2,0.5,0.4,1.1,0.5,1.7c0.1,0.6,0.2,1.2,0.2,1.7c0,1.3-0.2,2.5-0.7,3.6c-0.5,1.1-1.1,2.1-2,2.9
		c-0.8,0.8-1.8,1.5-2.9,2c-1.1,0.5-2.3,0.7-3.6,0.7s-2.5-0.2-3.6-0.7c-1.1-0.5-2.1-1.1-2.9-2c-0.8-0.8-1.5-1.8-2-2.9
		c-0.5-1.1-0.7-2.3-0.7-3.6s0.2-2.5,0.7-3.6c0.5-1.1,1.1-2.1,2-2.9c0.8-0.8,1.8-1.5,2.9-2c1.1-0.5,2.3-0.7,3.6-0.7
		c1.5,0,2.8,0.3,4.1,1c0.3,0.1,0.3,0.4,0.2,0.6c0,0.1-0.1,0.2-0.2,0.4c-0.1,0.2-0.2,0.4-0.3,0.6c-0.1,0.2-0.2,0.4-0.3,0.6
		c-0.1,0.2-0.2,0.3-0.2,0.4c-0.1,0.1-0.2,0.2-0.3,0.2c-0.2,0-0.3,0-0.5-0.1c-0.8-0.3-1.6-0.5-2.4-0.5c-0.8,0-1.6,0.2-2.4,0.5
		c-0.7,0.3-1.4,0.8-1.9,1.3c-0.6,0.6-1,1.2-1.3,2c-0.3,0.7-0.5,1.5-0.5,2.4c0,0.8,0.2,1.6,0.5,2.4c0.3,0.7,0.8,1.4,1.3,1.9
		c0.6,0.6,1.2,1,1.9,1.3c0.7,0.3,1.5,0.5,2.4,0.5c0.8,0,1.6-0.2,2.4-0.5c0.7-0.3,1.4-0.8,1.9-1.3c0.5-0.6,1-1.2,1.3-1.9
		c0.3-0.7,0.5-1.5,0.5-2.4c0-0.3,0-0.7-0.1-1c-0.1-0.4-0.2-0.7-0.3-1c-0.1-0.3-0.2-0.6-0.4-0.9c-0.1-0.3-0.3-0.5-0.4-0.6
		c-0.1-0.1-0.1-0.2-0.2-0.3c0-0.1,0-0.2,0-0.2c0-0.1,0.1-0.1,0.1-0.2c0.3-0.2,0.5-0.4,0.7-0.6c0.2-0.2,0.3-0.3,0.5-0.5
		S43.7,10.2,43.7,10.2z"/>
	<path id="m" class="st0" d="M62.7,12.6c0.7,0,1.3,0.1,1.9,0.4c0.5,0.2,1,0.6,1.4,1.1c0.4,0.5,0.7,1,0.9,1.6
		c0.2,0.6,0.3,1.3,0.3,2.1v6.5c0,0.2-0.1,0.3-0.2,0.4c-0.1,0.1-0.3,0.2-0.5,0.2h-1.7c-0.2,0-0.3-0.1-0.5-0.2
		c-0.1-0.1-0.2-0.3-0.2-0.4v-6.6c0-0.2,0-0.4-0.1-0.7c-0.1-0.2-0.2-0.5-0.3-0.7c-0.2-0.2-0.4-0.4-0.7-0.5c-0.3-0.1-0.6-0.2-1.1-0.2
		c-0.7,0-1.2,0.2-1.7,0.7c-0.5,0.4-0.7,1.1-0.7,2v6.1v0.1c0,0.2-0.1,0.3-0.2,0.4c-0.1,0.1-0.2,0.2-0.4,0.2h-1.8
		c-0.2,0-0.3-0.1-0.4-0.2c-0.1-0.1-0.2-0.3-0.2-0.4v-6.6c0-0.2,0-0.4-0.1-0.7c-0.1-0.2-0.2-0.5-0.3-0.7c-0.2-0.2-0.4-0.4-0.7-0.5
		c-0.3-0.1-0.6-0.2-1.1-0.2c-0.3,0-0.5,0.1-0.7,0.2s-0.4,0.3-0.6,0.5c-0.2,0.2-0.3,0.5-0.5,0.8c-0.1,0.3-0.2,0.7-0.2,1v6.1
		c0,0.2-0.1,0.3-0.2,0.4c-0.1,0.1-0.3,0.2-0.4,0.2h-1.8c-0.2,0-0.3-0.1-0.4-0.2c-0.1-0.1-0.2-0.3-0.2-0.4V13.5
		c0-0.2,0.1-0.3,0.2-0.4c0.1-0.1,0.3-0.2,0.4-0.2h1.6c0.2,0,0.3,0.1,0.5,0.2c0.1,0.1,0.2,0.2,0.2,0.4v0.2c0,0.1,0,0.1,0.1,0.2
		c0,0,0.1,0.1,0.1,0.1c0.1,0,0.2,0,0.2,0c0,0,0.1-0.1,0.1-0.1c0.7-0.8,1.5-1.2,2.3-1.2c0.8,0,1.5,0.2,2.1,0.5
		c0.6,0.4,1.1,0.8,1.5,1.4c0.2,0.3,0.4,0.3,0.5,0v0c0.4-0.5,0.8-0.8,1.1-1c0.3-0.3,0.7-0.5,1.1-0.6C62,12.6,62.4,12.6,62.7,12.6z"/>
	<path id="e" class="st0" d="M75.9,12.6c0.8,0,1.6,0.2,2.4,0.5c0.7,0.3,1.4,0.7,1.9,1.3c0.5,0.6,1,1.3,1.3,2.1
		c0.3,0.9,0.4,1.9,0.4,3c0,0.2,0,0.3-0.1,0.4c-0.1,0.1-0.2,0.1-0.3,0.1c-1.5,0-2.8,0-4,0h-4.6c0,0,0,0-0.1,0v0
		c0,0.1,0.1,0.2,0.2,0.5c0.1,0.2,0.3,0.5,0.5,0.8c0.2,0.3,0.6,0.5,1,0.7c0.4,0.2,0.9,0.4,1.5,0.5c0.5,0.1,1,0.1,1.4,0
		c0.4-0.1,0.8-0.2,1.1-0.3c0.3-0.1,0.6-0.3,0.8-0.5c0.2-0.2,0.4-0.4,0.6-0.5c0.1-0.1,0.1-0.1,0.2,0l1.4,1.2c0.1,0.1,0.1,0.1,0.1,0.2
		c0,0.1,0,0.1-0.1,0.2c-0.1,0.2-0.3,0.4-0.6,0.6c-0.3,0.3-0.7,0.5-1.1,0.8c-0.5,0.3-1,0.5-1.6,0.7C77.5,25,76.8,25,76,25
		c-0.8,0-1.6-0.2-2.4-0.5c-0.7-0.3-1.4-0.8-1.9-1.3c-0.5-0.6-1-1.2-1.3-2c-0.3-0.7-0.5-1.5-0.5-2.4c0-0.9,0.2-1.7,0.5-2.4
		c0.3-0.8,0.8-1.4,1.3-2c0.5-0.6,1.2-1,1.9-1.3C74.3,12.7,75.1,12.6,75.9,12.6z M79.1,17.4C79.2,17.4,79.2,17.4,79.1,17.4
		c-0.1-0.3-0.2-0.5-0.3-0.8c-0.1-0.3-0.3-0.5-0.6-0.7c-0.2-0.2-0.6-0.4-0.9-0.6c-0.4-0.2-0.8-0.2-1.3-0.2c-0.5,0-1,0.1-1.4,0.3
		c-0.4,0.2-0.7,0.4-0.9,0.7s-0.4,0.5-0.5,0.8c-0.1,0.3-0.2,0.4-0.2,0.5v0.1c0,0,0,0,0.1,0L79.1,17.4C79.1,17.5,79.1,17.5,79.1,17.4z
		"/>
	<path id="g" class="st0" d="M95.5,25.8c0,0.7-0.2,1.4-0.4,2.1c-0.2,0.7-0.6,1.3-1.1,1.8c-0.5,0.5-1.1,0.9-1.8,1.3
		c-0.7,0.3-1.6,0.5-2.6,0.5c-1.3,0-2.4-0.3-3.3-0.9c-0.9-0.6-1.6-1.3-2-2.2c0,0,0-0.1,0-0.1c0-0.1,0.1-0.1,0.1-0.1l0.2-0.1
		c0.1,0,0.3-0.1,0.6-0.2c0.3-0.1,0.6-0.2,1.1-0.4c0.2-0.1,0.3,0,0.4,0.1c0.3,0.3,0.6,0.6,1.1,0.9c0.4,0.3,1.1,0.4,1.9,0.4
		c0.6,0,1.1-0.1,1.5-0.3c0.4-0.2,0.7-0.5,1-0.8c0.2-0.3,0.4-0.7,0.5-1.1c0.1-0.4,0.2-0.8,0.2-1.2c0-1.1,0-2.2,0-3.1
		c0-0.4,0-0.8,0-1.2c0-0.4,0-0.7,0-1c0-0.3,0-0.6,0-0.7c0-0.2,0-0.3,0-0.3c0-0.9-0.2-1.6-0.7-2.2c-0.5-0.6-1-1-1.7-1.2
		c-0.7-0.2-1.4-0.2-2.1,0c-0.7,0.2-1.4,0.8-1.9,1.6c-0.4,0.6-0.5,1.3-0.4,1.9c0.1,0.7,0.3,1.2,0.7,1.8c0.4,0.5,0.9,0.9,1.5,1.1
		c0.6,0.2,1.3,0.2,2,0c0.1,0,0.3,0,0.4,0.1c0.1,0.1,0.2,0.2,0.3,0.3l0.7,1.9c0.1,0.2,0,0.4-0.3,0.4c-0.9,0.2-1.7,0.3-2.5,0.2
		c-0.8-0.1-1.6-0.3-2.3-0.7c-0.7-0.4-1.3-0.9-1.8-1.5c-0.5-0.6-0.9-1.3-1.2-2c-0.3-0.7-0.4-1.5-0.3-2.4c0-0.8,0.3-1.7,0.7-2.5
		c0.4-0.7,0.9-1.4,1.5-1.9c0.7-0.5,1.4-0.9,2.1-1.1c0.8-0.2,1.5-0.3,2.3-0.2c0.8,0.1,1.5,0.4,2.2,0.9c0.1,0.1,0.2,0.2,0.3,0.1
		c0.1,0,0.2-0.1,0.2-0.3c0-0.2,0.1-0.3,0.2-0.5c0.1-0.1,0.3-0.2,0.5-0.2h1.7c0.2,0,0.3,0.1,0.3,0.2c0,0.1,0.1,0.3,0.1,0.5V25.8z"/>
	<path id="a_1_" class="st0" d="M110,24.1c0,0.2-0.1,0.3-0.2,0.5c-0.1,0.1-0.3,0.2-0.5,0.2h-1.7c-0.2,0-0.3-0.1-0.5-0.2
		c-0.1-0.1-0.2-0.3-0.2-0.5v-2.5c0-0.3,0-0.6,0-0.9c0-0.3,0-0.6,0-0.8c0-0.2,0-0.5,0-0.6s0-0.2,0-0.3c0-0.8-0.2-1.4-0.5-2
		c-0.3-0.5-0.7-0.9-1.3-1.2c-0.4-0.2-0.8-0.4-1.3-0.4c-0.4,0-0.9,0-1.3,0.1c-0.4,0.1-0.8,0.3-1.1,0.6c-0.4,0.3-0.6,0.6-0.9,1
		c-0.3,0.6-0.5,1.2-0.4,1.9c0.1,0.7,0.3,1.3,0.7,1.8c0.4,0.5,0.9,0.9,1.5,1.2c0.6,0.3,1.3,0.3,2,0.1c0.2-0.1,0.3,0,0.4,0
		c0.1,0.1,0.2,0.2,0.3,0.3l0.7,1.9c0.1,0.1,0,0.2-0.2,0.3c-0.9,0.3-1.8,0.4-2.7,0.3c-0.9-0.1-1.7-0.3-2.4-0.7
		c-0.7-0.4-1.3-0.9-1.9-1.5c-0.5-0.6-0.9-1.3-1.2-2.1c-0.2-0.8-0.3-1.6-0.3-2.4c0.1-0.8,0.3-1.7,0.7-2.5c0.4-0.7,0.9-1.3,1.5-1.9
		c0.7-0.5,1.4-0.9,2.1-1.1c0.8-0.2,1.6-0.3,2.4-0.2c0.8,0.1,1.6,0.4,2.2,0.8c0.1,0.1,0.2,0.2,0.3,0.2c0.1,0,0.2-0.1,0.2-0.3
		c0-0.2,0.1-0.3,0.2-0.5c0.1-0.1,0.3-0.2,0.5-0.2h1.9c0.2,0,0.3,0.1,0.5,0.2c0.1,0.1,0.2,0.3,0.2,0.5V24.1z"/>
	<path id="s" class="st0" d="M112.7,22.9c-0.1-0.1-0.2-0.2-0.2-0.3c0-0.1,0-0.2,0.1-0.3v0l0.9-1.6c0.1-0.1,0.2-0.2,0.3-0.2
		c0.1,0,0.2,0,0.3,0.1l0.1,0c0.1,0.1,0.3,0.2,0.6,0.4c0.3,0.2,0.7,0.4,1.1,0.6c0.4,0.2,0.9,0.4,1.3,0.5c0.5,0.2,0.9,0.2,1.3,0.2
		c0.7,0,1.3-0.2,1.8-0.6c0.5-0.4,0.7-0.9,0.7-1.5c0-0.7-0.3-1.3-0.8-1.8c-0.6-0.5-1.4-1-2.5-1.4c-0.6-0.2-1.2-0.5-1.8-0.8
		c-0.6-0.3-1.1-0.7-1.5-1.1c-0.4-0.4-0.8-0.9-1.1-1.5c-0.3-0.6-0.4-1.2-0.4-2c0-0.6,0.1-1.1,0.3-1.8c0.2-0.6,0.6-1.1,1.1-1.6
		c0.5-0.5,1.1-0.9,1.8-1.1c0.7-0.3,1.6-0.4,2.5-0.4c0.7,0,1.3,0.1,1.9,0.3c0.6,0.1,1.1,0.3,1.6,0.5c0.5,0.2,0.9,0.4,1.2,0.6
		c0.3,0.2,0.6,0.3,0.7,0.4c0.1,0.1,0.2,0.2,0.2,0.3c0,0.1,0,0.3-0.1,0.4c-0.2,0.2-0.3,0.5-0.5,0.7s-0.3,0.5-0.5,0.7
		c-0.1,0.1-0.2,0.2-0.3,0.3c-0.1,0.1-0.3,0.1-0.4,0c-0.1,0-0.2-0.1-0.5-0.3c-0.3-0.2-0.6-0.3-1-0.5c-0.4-0.2-0.8-0.3-1.2-0.5
		c-0.4-0.1-0.8-0.2-1.2-0.2c-0.4,0-0.7,0.1-1,0.2c-0.3,0.1-0.6,0.3-0.8,0.5c-0.2,0.2-0.4,0.4-0.5,0.6s-0.2,0.5-0.2,0.7
		c0,0.7,0.3,1.2,0.8,1.6c0.5,0.4,1.3,0.9,2.4,1.4c0.6,0.3,1.2,0.6,1.9,1c0.6,0.3,1.2,0.7,1.7,1.2c0.5,0.4,0.9,1,1.3,1.5
		c0.3,0.6,0.5,1.3,0.5,2.1c0,0.7-0.1,1.3-0.4,1.9c-0.3,0.6-0.7,1.2-1.2,1.7c-0.5,0.5-1.1,0.9-1.8,1.1c-0.7,0.3-1.5,0.4-2.4,0.3
		c-0.8,0-1.6-0.1-2.2-0.3c-0.7-0.2-1.3-0.4-1.8-0.6c-0.5-0.2-1-0.5-1.3-0.7C113.1,23.2,112.8,23,112.7,22.9L112.7,22.9z"/>
	<path id="w" class="st0" d="M147.2,12.8c0.1,0.1,0.1,0.3,0,0.5v0l-4.6,11.1v0c-0.1,0.1-0.1,0.2-0.2,0.3c-0.1,0.1-0.2,0.1-0.3,0.1
		h-1.6c-0.3,0-0.5-0.1-0.6-0.4l-2.9-6.9c-0.1-0.1-0.1-0.2-0.3-0.2c-0.1,0-0.2,0.1-0.3,0.2l-2.9,6.9v0c-0.1,0.3-0.3,0.4-0.6,0.4h-1.6
		c-0.2,0-0.3,0-0.4-0.1c-0.1-0.1-0.2-0.2-0.2-0.3v0l-4.7-11.1v0c-0.1-0.1-0.1-0.3,0-0.4c0.1-0.1,0.2-0.2,0.4-0.2h2
		c0.2,0,0.3,0,0.4,0.1c0.1,0.1,0.2,0.2,0.3,0.3v0l2.9,6.7v0c0,0.1,0.1,0.1,0.1,0.1c0.1,0,0.1,0,0.1-0.1L135,13v0
		c0.1-0.1,0.1-0.2,0.2-0.3c0.1-0.1,0.2-0.1,0.3-0.1h2.2c0.2,0,0.3,0,0.3,0.1c0.1,0.1,0.1,0.1,0.2,0.3l2.9,6.8c0,0.1,0.1,0.1,0.1,0.1
		c0,0,0.1,0,0.1-0.1l2.8-6.7v0c0.1-0.2,0.2-0.3,0.3-0.4c0.1-0.1,0.3-0.1,0.5-0.1h0h1.9C147,12.6,147.1,12.7,147.2,12.8z"/>
	<path id="a" class="st0" d="M160.3,24.1c0,0.2-0.1,0.3-0.2,0.5c-0.1,0.1-0.3,0.2-0.5,0.2h-1.7c-0.2,0-0.3-0.1-0.5-0.2
		c-0.1-0.1-0.2-0.3-0.2-0.5v-2.5c0-0.3,0-0.6,0-0.9c0-0.3,0-0.6,0-0.8c0-0.2,0-0.5,0-0.6s0-0.2,0-0.3c0-0.8-0.2-1.4-0.5-2
		c-0.3-0.5-0.7-0.9-1.3-1.2c-0.4-0.2-0.8-0.4-1.3-0.4c-0.4,0-0.9,0-1.3,0.1c-0.4,0.1-0.8,0.3-1.1,0.6c-0.4,0.3-0.6,0.6-0.9,1
		c-0.3,0.6-0.5,1.2-0.4,1.9c0.1,0.7,0.3,1.3,0.7,1.8c0.4,0.5,0.9,0.9,1.5,1.2c0.6,0.3,1.3,0.3,2,0.1c0.2-0.1,0.3,0,0.4,0
		c0.1,0.1,0.2,0.2,0.3,0.3l0.7,1.9c0.1,0.1,0,0.2-0.2,0.3c-0.9,0.3-1.8,0.4-2.7,0.3c-0.9-0.1-1.7-0.3-2.4-0.7
		c-0.7-0.4-1.3-0.9-1.9-1.5c-0.5-0.6-0.9-1.3-1.2-2.1c-0.2-0.8-0.3-1.6-0.3-2.4c0.1-0.8,0.3-1.7,0.7-2.5c0.4-0.7,0.9-1.3,1.5-1.9
		c0.7-0.5,1.4-0.9,2.1-1.1c0.8-0.2,1.6-0.3,2.4-0.2c0.8,0.1,1.6,0.4,2.2,0.8c0.1,0.1,0.2,0.2,0.3,0.2c0.1,0,0.2-0.1,0.2-0.3
		c0-0.2,0.1-0.3,0.2-0.5c0.1-0.1,0.3-0.2,0.5-0.2h1.9c0.2,0,0.3,0.1,0.5,0.2c0.1,0.1,0.2,0.3,0.2,0.5V24.1z"/>
	<path id="p" class="st0" d="M175.6,19.7c-0.1,0.8-0.4,1.6-0.9,2.3c-0.4,0.7-1,1.3-1.6,1.7c-0.6,0.5-1.4,0.8-2.2,1
		c-0.8,0.2-1.6,0.2-2.5,0.1c-0.4-0.1-0.8-0.2-1.2-0.3c-0.4-0.2-0.7-0.3-1.1-0.5v6.7c0,0.2-0.1,0.3-0.2,0.4c-0.1,0.1-0.2,0.2-0.4,0.2
		h-1.8c-0.2,0-0.3-0.1-0.5-0.2c-0.1-0.1-0.2-0.3-0.2-0.4V13.2c0-0.2,0.1-0.3,0.2-0.4c0.1-0.1,0.3-0.2,0.5-0.2h1.8
		c0.2,0,0.3,0.1,0.4,0.2c0.1,0.1,0.2,0.3,0.2,0.4v6c0,0.3,0.1,0.6,0.2,0.9c0.1,0.3,0.3,0.6,0.6,0.8c0.2,0.2,0.5,0.4,0.9,0.6
		c0.3,0.2,0.7,0.3,1.1,0.3c0.5,0.1,0.9,0,1.4-0.1c0.4-0.1,0.8-0.3,1.2-0.5c0.3-0.2,0.6-0.5,0.9-0.9c0.2-0.4,0.4-0.8,0.5-1.2
		c0.1-0.4,0.1-0.9-0.1-1.3c-0.1-0.4-0.3-0.8-0.5-1.2c-0.2-0.4-0.6-0.6-0.9-0.9c-0.4-0.2-0.8-0.4-1.2-0.5c-0.2,0-0.5-0.1-0.7-0.1
		c-0.2,0-0.4,0-0.7,0.1c-0.2,0.1-0.3,0.1-0.5,0c-0.1-0.1-0.2-0.2-0.3-0.4l-0.6-1.8c-0.1-0.2-0.1-0.3,0-0.3c0.1-0.1,0.1-0.1,0.2-0.1
		c0.5-0.1,1-0.2,1.5-0.3c0.5-0.1,1-0.1,1.5,0c0.8,0.1,1.6,0.4,2.3,0.9c0.7,0.4,1.3,1,1.7,1.6c0.5,0.6,0.8,1.4,1,2.2
		C175.7,18,175.7,18.8,175.6,19.7z"/>
</g>
</svg>
